# xmcd
#
# Track frame offsets:
#	150
#	15859
#	31501
#	49121
#	67998
#	86074
#
# Disc length: 1315 seconds
#
# Revision: 0
# Processed by: cddbd v1.4PL0 Copyright (c) Steve Scherf et al.
# Submitted via: audiograbber 1.81.03
#
DISCID=37052106
DTITLE=Git - Sweet
DYEAR=1999
DGENRE=Country
TTITLE0=Autumn Love
TTITLE1=Honey Tree
TTITLE2=Pick Up Truck
TTITLE3=Fenders
TTITLE4=Marry Me
TTITLE5=Beautiful Men
EXTD=
EXTT0=
EXTT1=
EXTT2=
EXTT3=
EXTT4=
EXTT5=
PLAYORDER=
